<svg version="1.2" xmlns="http://www.w3.org/2000/svg" xmlns:xlink="http://www.w3.org/1999/xlink" overflow="visible" preserveAspectRatio="none" viewBox="0 0 52.790000915527344 52.790000915527344" width="16" height="16"><g transform="translate(1, 1)"><defs><style>.cls-1_1643301527033{fill:#1a1a1a;}</style></defs><g id="Layer_2_1643301527033"><g id="svg3003_1643301527033"><g id="layer1_1643301527033"><path d="M2.8,0A2.8,2.8,0,0,0,0,2.8V48a2.8,2.8,0,0,0,2.8,2.8H27.13V31.13H20.51V23.46h6.62V17.8c0-6.56,4-10.13,9.86-10.13A51.77,51.77,0,0,1,42.9,8v6.85H38.84c-3.18,0-3.8,1.51-3.8,3.73v4.9h7.6l-1,7.67H35V50.79H48a2.8,2.8,0,0,0,2.8-2.8V2.8A2.8,2.8,0,0,0,48,0Z" class="cls-1_1643301527033" id="Blue_1643301527033" vector-effect="non-scaling-stroke" style="fill: rgb(172, 172, 172);"/></g></g></g></g></svg>